<svg width="40" height="42" viewBox="0 0 40 42" fill="none" xmlns="http://www.w3.org/2000/svg">
<path d="M24.6083 41.1155C24.5837 41.1406 24.5558 41.1623 24.5255 41.18C24.3971 41.2527 24.2377 41.2419 24.1204 41.1524C23.0158 40.4528 17.258 36.4669 13.4885 31.8045C13.2767 31.5375 13.1755 31.4133 13.1801 31.2568C13.1156 29.0706 16.9818 26.5898 19.9367 24.9927H19.9643C20.0029 24.9681 20.0516 24.9658 20.0923 24.9866C20.133 25.0074 20.1596 25.0483 20.1622 25.0939C20.1622 28.1684 21.0229 36.6004 24.6313 40.5126C24.7882 40.6867 24.778 40.9539 24.6083 41.1155V41.1155Z" fill="#FFAD00"/>
<path d="M22.2104 22.475L30.2097 18.839C32.2558 18.0376 33.8507 16.3838 34.5776 14.31L35.5763 11.507C35.6104 11.3945 35.5774 11.2723 35.4914 11.1922C35.4053 11.112 35.2812 11.0877 35.1713 11.1296L19.8907 17.6009L19.9459 17.3569C20.0241 16.9032 20.301 16.5082 20.7007 16.2799C23.2874 14.6874 32.557 9.94677 32.557 9.94677C35.4978 8.57316 37.7059 6.00123 38.6186 2.88639L39.3182 0.488444C39.359 0.347802 39.3158 0.196217 39.207 0.0982C39.0982 0.000183305 38.943 -0.0270131 38.8073 0.0281851C38.8073 0.0281851 24.8569 5.45004 20.374 7.62706C15.891 9.80409 11.2977 12.6117 9.70516 20.8595C9.06079 24.201 10.2437 27.0316 12.4667 30.235C12.4529 27.0822 20.42 23.3403 22.2104 22.475Z" fill="#FFAD00"/>
<path d="M2.53432 8.35895C1.26861 7.38781 0.1916 7.30496 0.00289412 7.38781C-0.0753499 7.09324 1.45731 6.36603 1.64602 6.17732C2.26737 5.58359 2.61717 4.79655 3.34437 4.29026C4.82641 3.23627 6.65824 3.56305 8.1955 4.39612C8.97794 4.82877 11.132 6.23716 11.1642 6.3108C12.3893 7.22647 13.5321 8.24754 14.5793 9.36232C14.6521 9.42677 14.6957 9.51802 14.7001 9.61518C14.7044 9.71235 14.6691 9.80712 14.6023 9.87781C14.4596 9.98827 14.1421 10.246 13.5897 10.7339C9.9675 14.0432 8.9043 18.7838 8.63735 20.4914C8.63735 20.5282 8.58673 20.8228 8.58673 20.8228C8.58673 20.8228 6.82393 11.3783 2.53432 8.35895Z" fill="#FFAD00"/>
</svg>
